<svg xmlns="http://www.w3.org/2000/svg" width="360" height="480" viewBox="0 0 360 480" role="img" aria-labelledby="t d"><title id="t">Install Quietwall</title><desc id="d">A stylized Android install screen.</desc><rect width="360" height="480" fill="#101715"/><path fill="#090d0c" stroke="#304039" stroke-width="4" d="M58 24h224l20 20v392l-20 20H58l-20-20V44z"/><rect x="122" y="42" width="116" height="8" fill="#304039"/><path fill="#b7f34a" d="M130 112h80l20 20v80l-20 20h-80l-20-20v-80z"/><path fill="#090d0c" d="M152 137h36v12h12v46h-60v-46h12zm8 12h20v-10h-20z"/><rect x="90" y="278" width="180" height="16" fill="#f2f5e9"/><rect x="116" y="308" width="128" height="9" fill="#aebbb2"/><rect x="82" y="354" width="196" height="56" fill="#b7f34a"/><path d="M82 354h180l16 16" fill="none" stroke="#f2f5e9" stroke-width="3"/><circle cx="180" cy="382" r="8" fill="#090d0c"/><path d="M0 76h30M330 76h30M0 404h30M330 404h30" stroke="#6fe7d6" stroke-width="4"/></svg>
